Coordinates
version=1
nRows=9
nColumns=24
inDegrees=yes

Units are S.I. units (second, meters, Newtons, ...)
Angles are in degrees.

endheader
time	pelvis_tilt	pelvis_list	pelvis_rotation	pelvis_tx	pelvis_ty	pelvis_tz	hip_flexion_r	hip_adduction_r	hip_rotation_r	knee_angle_r	ankle_angle_r	subtalar_angle_r	mtp_angle_r	hip_flexion_l	hip_adduction_l	hip_rotation_l	knee_angle_l	ankle_angle_l	subtalar_angle_l	mtp_angle_l	lumbar_extension	lumbar_bending	lumbar_rotation
      1.14950000	     -0.58860228	      6.47810090	     -1.62523771	      0.13448462	      0.99568643	      0.28029451	     22.44096906	     -7.05621010	      0.35043430	    -70.77200815	      3.81441815	    -10.59665532	     -0.89086108	      8.75440707	     11.59031793	     -0.69323888	    -10.97102766	      3.46944138	     -7.72711232	      2.12130856	     -2.25663630	     -4.08128567	      2.41864641
      1.15366667	     -0.53106121	      6.38593561	     -1.63592888	      0.13957906	      0.99649167	      0.28023424	     22.91242095	     -6.88722471	      0.47949451	    -70.42281759	      4.29617623	    -10.80959035	     -0.96976229	      8.16097062	     11.51588829	     -0.56129473	    -10.60041360	      3.54384411	     -7.72008813	      2.05492465	     -2.35075755	     -3.98281151	      2.34719439
      1.15783333	     -0.51259238	      6.26965136	     -1.64222143	      0.14465935	      0.99721584	      0.28019032	     23.40456933	     -6.68666317	      0.60099820	    -70.00570231	      4.79601335	    -10.94383409	     -1.03968873	      7.62913136	     11.40967831	     -0.45381159	    -10.26867783	      3.62478508	     -7.69266881	      1.98950284	     -2.39859373	     -3.84581275	      2.28607105
      1.16200000	     -0.51888716	      6.14791629	     -1.64637337	      0.14971562	      0.99786820	      0.28015877	     23.90558847	     -6.47573988	      0.72266749	    -69.52369183	      5.27872882	    -11.02949146	     -1.06692865	      7.14125972	     11.29265122	     -0.37291445	     -9.96549853	      3.70427024	     -7.64556885	      1.95828656	     -2.41650406	     -3.69360966	      2.24078355
      1.16616667	     -0.49561418	      6.03380536	     -1.64931030	      0.15477940	      0.99852295	      0.28013319	     24.35237759	     -6.27590374	      0.83870486	    -68.98150181	      5.77664513	    -11.12581410	     -1.09813190	      6.61602710	     11.18532841	     -0.27516770	     -9.65141166	      3.79691891	     -7.60215839	      1.92175861	     -2.47528025	     -3.56077126	      2.18384764
      1.17033333	     -0.48555985	      5.92586517	     -1.64587639	      0.15982886	      0.99910460	      0.28010560	     24.79690429	     -6.08617957	      0.94539926	    -68.38351068	      6.24878567	    -11.20217211	     -1.12915122	      6.11156722	     11.08413076	     -0.17383984	     -9.34620660	      3.89223661	     -7.56655233	      1.88411602	     -2.51870762	     -3.43771124	      2.12032091
      1.17450000	     -0.46941695	      5.81655307	     -1.64109104	      0.16487560	      0.99967141	      0.28009540	     25.21080092	     -5.89315628	      1.04819855	    -67.71924550	      6.71691170	    -11.26778318	     -1.16655153	      5.60225744	     10.98063289	     -0.06822843	     -9.04285098	      3.98603576	     -7.54102463	      1.83828229	     -2.56679438	     -3.31728983	      2.04838673
      1.17866667	     -0.46006108	      5.71472153	     -1.63270375	      0.16991887	      1.00017003	      0.28007418	     25.61489429	     -5.71288026	      1.14373511	    -67.00341733	      7.17086879	    -11.31322168	     -1.19804975	      5.10516274	     10.88515313	      0.03027118	     -8.74604688	      4.08043552	     -7.51666013	      1.79761314	     -2.61004118	     -3.19144783	      1.98042114
      1.18283333	     -0.46757791	      5.60556298	     -1.61881718	      0.17494556	      1.00060642	      0.28006275	     26.01425378	     -5.52181003	      1.23407950	    -66.22388341	      7.59985743	    -11.35933236	     -1.22955949	      4.63194614	     10.77974623	      0.13487224	     -8.45807010	      4.18204791	     -7.49764349	      1.75742713	     -2.63345420	     -3.06732449	      1.90898803
